<svg xmlns="http://www.w3.org/2000/svg" width="1200" height="420" viewBox="0 0 1200 420" role="img" aria-labelledby="title desc">
  <title id="title">FlashUpload</title>
  <desc id="desc">Fast resumable uploads and a Google Drive workspace</desc>
  <defs>
    <linearGradient id="page" x1="80" y1="10" x2="1120" y2="410" gradientUnits="userSpaceOnUse"><stop stop-color="#fbfdff"/><stop offset=".55" stop-color="#f6f9ff"/><stop offset="1" stop-color="#eef6ff"/></linearGradient>
    <linearGradient id="word" x1="286" y1="0" x2="890" y2="0" gradientUnits="userSpaceOnUse"><stop stop-color="#194be5"/><stop offset=".32" stop-color="#0a9fe8"/><stop offset=".52" stop-color="#12b86a"/><stop offset=".7" stop-color="#f8b51b"/><stop offset=".86" stop-color="#f25a18"/><stop offset="1" stop-color="#dc1732"/></linearGradient>
    <linearGradient id="blue" x1="115" y1="92" x2="280" y2="305" gradientUnits="userSpaceOnUse"><stop stop-color="#35c7f4"/><stop offset=".4" stop-color="#0f7df1"/><stop offset="1" stop-color="#1437e6"/></linearGradient>
    <linearGradient id="green" x1="215" y1="90" x2="326" y2="235" gradientUnits="userSpaceOnUse"><stop stop-color="#54f58a"/><stop offset="1" stop-color="#00a95f"/></linearGradient>
    <linearGradient id="yellow" x1="272" y1="160" x2="324" y2="300" gradientUnits="userSpaceOnUse"><stop stop-color="#ffe13c"/><stop offset="1" stop-color="#ff8615"/></linearGradient>
    <linearGradient id="red" x1="113" y1="290" x2="288" y2="336" gradientUnits="userSpaceOnUse"><stop stop-color="#ff1641"/><stop offset="1" stop-color="#ff5a18"/></linearGradient>
    <clipPath id="iconClip"><rect x="94" y="72" width="240" height="240" rx="58"/></clipPath>
    <filter id="shadow" x="-30%" y="-30%" width="160%" height="170%"><feDropShadow dx="0" dy="18" stdDeviation="18" flood-color="#10245d" flood-opacity=".16"/></filter>
  </defs>
  <rect width="1200" height="420" rx="40" fill="url(#page)"/>
  <path d="M780 0H1200V420H900C1015 340 1075 260 1081 177C1088 90 988 31 780 0Z" fill="#1d74f5" opacity=".035"/>
  <path d="M0 285C150 338 257 383 322 420H0V285Z" fill="#17a75c" opacity=".035"/>

  <g filter="url(#shadow)">
    <g clip-path="url(#iconClip)">
      <rect x="94" y="72" width="240" height="240" rx="58" fill="url(#blue)"/>
      <path d="M187 69C255 66 307 70 334 101V204C312 168 280 141 239 124C218 115 198 98 187 69Z" fill="url(#green)"/>
      <path d="M336 153C327 201 293 237 238 254C273 279 306 287 336 276V153Z" fill="url(#yellow)"/>
      <path d="M94 239C115 207 145 189 184 183C166 208 158 231 161 252C175 283 217 305 274 315H139C114 306 98 280 94 239Z" fill="url(#red)"/>
    </g>
    <rect x="94.5" y="72.5" width="239" height="239" rx="57.5" fill="none" stroke="#fff" stroke-opacity=".32"/>
  </g>
  <path fill="#fff" d="M214 123c4 0 8 2 11 5l41 41c6 6 2 17-7 17h-25l-4 30h22c9 0 13 10 8 17l-51 61c-8 9-23 2-21-10l7-44h-26c-9 0-13-10-8-17l40-95c3-3 8-5 13-5Zm0 22-29 34h25c6 0 10 5 9 11l-5 32h22c4 0 6 1 8 4l-31 37 6-37c1-6-4-12-10-12h-24l29-69Z" fill-rule="evenodd"/>

  <text x="395" y="160" font-family="Inter,Google Sans,Arial,sans-serif" font-size="67" font-weight="800" letter-spacing="-3.2" fill="url(#word)">FlashUpload</text>
  <text x="397" y="208" font-family="Inter,Google Sans,Arial,sans-serif" font-size="23" font-weight="550" fill="#3d4a5c">Resumable uploads. Real Drive workspace. No file relay.</text>

  <g transform="translate(397 244)">
    <rect width="660" height="82" rx="22" fill="#fff" stroke="#dfe7f1"/>
    <circle cx="29" cy="26" r="5" fill="#21b66f"/>
    <text x="45" y="31" font-family="ui-monospace,SFMono-Regular,Menlo,monospace" font-size="11" font-weight="700" letter-spacing="1.2" fill="#566477">BROWSER → GOOGLE DRIVE</text>
    <rect x="24" y="49" width="430" height="9" rx="4.5" fill="#edf2f7"/>
    <rect x="24" y="49" width="336" height="9" rx="4.5" fill="#1976ed"/>
    <text x="480" y="59" font-family="Inter,Arial,sans-serif" font-size="13" font-weight="700" fill="#1c2838">resume · folders · trash · retry</text>
  </g>
  <text x="397" y="365" font-family="ui-monospace,SFMono-Regular,Menlo,monospace" font-size="11" letter-spacing="1.7" fill="#7b8796">FLASHUPLOAD.CASSIELAE.ME</text>
</svg>
